<?xml version="1.0" standalone="no"?><!DOCTYPE svg PUBLIC "-//W3C//DTD SVG 1.1//EN" "http://www.w3.org/Graphics/SVG/1.1/DTD/svg11.dtd"><svg t="1637381125129" class="icon" viewBox="0 0 1024 1024" version="1.1" xmlns="http://www.w3.org/2000/svg" p-id="6814" width="40" height="40" xmlns:xlink="http://www.w3.org/1999/xlink"><defs><style type="text/css"></style></defs><path d="M853.9 464.1c-9.2 0-17.9-5.6-21.4-14.6l-103-263.7c-4.6-11.8 1.2-25.2 13.1-29.8 11.8-4.6 25.2 1.2 29.8 13.1l103 263.7c4.6 11.8-1.2 25.2-13.1 29.8-2.8 1-5.6 1.5-8.4 1.5z" fill="#ffffff" p-id="6815"></path><path d="M851.1 984.3h-43.4c-20.1 0-36.5-16.4-36.5-36.5V708.5H246.3v239.2c0 20.1-16.4 36.5-36.5 36.5h-43.4c-20.1 0-36.5-16.4-36.5-36.5V708.4h-3.4c-38.7 0-70.1-31.4-70.1-70.1V500.9c0-7.7 1.3-15.4 3.8-22.7-1.5-14.1 5.2-28.1 18.1-35.5l683-394.3c8.4-4.9 18.2-6.3 27.7-3.8s17.4 8.6 22.3 17.1l19.5 33.9c4.9 8.4 6.3 18.2 3.8 27.7s-8.6 17.4-17.1 22.3L323.2 430.8H891c38.7 0 70.1 31.4 70.1 70.1v137.5c0 38.7-31.4 70.1-70.1 70.1h-3.4v239.3c0 20.1-16.4 36.5-36.5 36.5z m-33.9-46h24.4V685.5c0-12.7 10.3-23 23-23H891c13.3 0 24.1-10.8 24.1-24.1V500.9c0-13.3-10.8-24.1-24.1-24.1H237.4c-10.4 0-19.5-7-22.2-17-2.7-10.1 1.7-20.7 10.7-25.9l560.4-323.5-10.1-17.5-669 386.2c0.2 3.8-0.6 7.6-2.3 11.1-1.7 3.4-2.5 7-2.5 10.7v137.4c0 13.3 10.8 24.1 24.1 24.1h26.4c12.7 0 23 10.3 23 23v252.8h24.4V685.5c0-12.7 10.3-23 23-23h570.9c12.7 0 23 10.3 23 23v252.8zM101.3 482.5z" fill="#ffffff" p-id="6816"></path></svg>