<?xml version="1.0" standalone="no"?><!DOCTYPE svg PUBLIC "-//W3C//DTD SVG 1.1//EN" "http://www.w3.org/Graphics/SVG/1.1/DTD/svg11.dtd"><svg t="1637381330888" class="icon" viewBox="0 0 1024 1024" version="1.1" xmlns="http://www.w3.org/2000/svg" p-id="8285" xmlns:xlink="http://www.w3.org/1999/xlink" width="40" height="40"><defs><style type="text/css"></style></defs><path d="M288 149.333333a32 32 0 0 1 0-64h448c111.925333 0 202.666667 90.741333 202.666667 202.666667v448a32 32 0 0 1-64 0V288c0-76.586667-62.08-138.666667-138.666667-138.666667H288z m448 725.333334a32 32 0 0 1 0 64H288C176.074667 938.666667 85.333333 847.925333 85.333333 736V288a32 32 0 0 1 64 0v448c0 76.586667 62.08 138.666667 138.666667 138.666667h448z m-21.333333-409.013334c0 43.488-11.818667 83.541333-29.546667 112.149334-20.085333 34.325333-51.989333 59.498667-81.525333 78.954666-4.725333 3.434667-9.450667 4.576-15.36 4.576-10.634667 0-21.269333-5.717333-27.178667-13.728-2.368-5.728-4.725333-11.445333-4.725333-18.314666 0-9.152 3.541333-18.304 11.808-24.032 18.912-11.445333 37.813333-26.314667 52-41.194667 10.634667-11.445333 20.085333-28.608 21.269333-45.770667v-2.293333c0-4.576-2.368-5.717333-5.909333-5.717333h-3.541334c-7.093333 1.141333-9.461333 1.141333-13.002666 1.141333-37.813333 0-72.085333-28.608-72.085334-73.237333 0-40.042667 28.373333-75.52 77.994667-75.52C673.312 362.666667 714.666667 396.992 714.666667 465.653333z m-237.546667 0c0 43.488-11.808 83.541333-29.536 112.149334-20.085333 34.325333-51.989333 59.498667-81.536 78.954666-4.725333 3.434667-9.450667 4.576-15.36 4.576-10.634667 0-21.269333-5.717333-27.178667-13.728-2.357333-5.728-4.725333-11.445333-4.725333-18.314666 0-9.152 3.552-18.304 11.818667-24.032 18.901333-11.445333 37.813333-26.314667 51.989333-41.194667 10.634667-11.445333 20.085333-28.608 21.269333-45.770667v-2.293333c0-4.576-2.357333-5.717333-5.909333-5.717333h-3.541333c-7.093333 1.141333-9.450667 1.141333-13.002667 1.141333-37.802667 0-72.074667-28.608-72.074667-73.237333 0-40.042667 28.362667-75.52 77.984-75.52 48.448 0 89.813333 34.325333 89.813334 102.986666h-0.010667z" p-id="8286" fill="#ffffff"></path></svg>